<mxfile host="app.diagrams.net" agent="Mozilla/5.0 (Windows NT 10.0; Win64; x64) AppleWebKit/537.36 (KHTML, like Gecko) Chrome/127.0.0.0 Safari/537.36" version="24.7.7">
  <diagram name="Page-1" id="ANvJecwbT-UsdzwQZMR_">
    <mxGraphModel dx="1900" dy="583" grid="1" gridSize="10" guides="1" tooltips="1" connect="1" arrows="1" fold="1" page="1" pageScale="1" pageWidth="850" pageHeight="1100" math="0" shadow="0">
      <root>
        <mxCell id="0" />
        <mxCell id="1" parent="0" />
        <mxCell id="70DsS0rm1rWFSEQQ0m01-1" value="" style="whiteSpace=wrap;html=1;aspect=fixed;fillColor=#d5e8d4;strokeColor=#82b366;" vertex="1" parent="1">
          <mxGeometry x="80" y="80" width="300" height="300" as="geometry" />
        </mxCell>
        <mxCell id="70DsS0rm1rWFSEQQ0m01-2" value="" style="html=1;verticalLabelPosition=bottom;align=center;labelBackgroundColor=#ffffff;verticalAlign=top;strokeWidth=2;strokeColor=#0080F0;shadow=0;dashed=0;shape=mxgraph.ios7.icons.smartphone;" vertex="1" parent="1">
          <mxGeometry x="120" y="180" width="50" height="70" as="geometry" />
        </mxCell>
        <mxCell id="70DsS0rm1rWFSEQQ0m01-3" value="" style="rounded=1;whiteSpace=wrap;html=1;fillColor=#dae8fc;strokeColor=#6c8ebf;" vertex="1" parent="1">
          <mxGeometry x="560" y="80" width="280" height="310" as="geometry" />
        </mxCell>
        <mxCell id="70DsS0rm1rWFSEQQ0m01-4" value="H*" style="ellipse;html=1;" vertex="1" parent="1">
          <mxGeometry x="740" y="177.5" width="70" height="75" as="geometry" />
        </mxCell>
        <mxCell id="70DsS0rm1rWFSEQQ0m01-5" value="" style="html=1;strokeWidth=1;shadow=0;dashed=0;shape=mxgraph.ios7.misc.vpn;fillColor=#007AFF;strokeColor=none;buttonText=;strokeColor2=#222222;fontColor=#222222;fontSize=8;verticalLabelPosition=bottom;verticalAlign=top;align=center;sketch=0;" vertex="1" parent="1">
          <mxGeometry x="580" y="180" width="80" height="70" as="geometry" />
        </mxCell>
        <mxCell id="70DsS0rm1rWFSEQQ0m01-7" style="edgeStyle=orthogonalEdgeStyle;rounded=0;orthogonalLoop=1;jettySize=auto;html=1;entryX=-0.015;entryY=0.509;entryDx=0;entryDy=0;entryPerimeter=0;" edge="1" parent="1" source="70DsS0rm1rWFSEQQ0m01-2" target="70DsS0rm1rWFSEQQ0m01-5">
          <mxGeometry relative="1" as="geometry" />
        </mxCell>
        <mxCell id="70DsS0rm1rWFSEQQ0m01-8" style="edgeStyle=orthogonalEdgeStyle;rounded=0;orthogonalLoop=1;jettySize=auto;html=1;entryX=0;entryY=0.5;entryDx=0;entryDy=0;" edge="1" parent="1" source="70DsS0rm1rWFSEQQ0m01-5" target="70DsS0rm1rWFSEQQ0m01-4">
          <mxGeometry relative="1" as="geometry">
            <Array as="points">
              <mxPoint x="700" y="215" />
            </Array>
          </mxGeometry>
        </mxCell>
        <mxCell id="70DsS0rm1rWFSEQQ0m01-9" value="&lt;b&gt;Client&lt;/b&gt;" style="text;html=1;align=center;verticalAlign=middle;resizable=0;points=[];autosize=1;strokeColor=none;fillColor=none;" vertex="1" parent="1">
          <mxGeometry x="115" y="255" width="60" height="30" as="geometry" />
        </mxCell>
        <mxCell id="70DsS0rm1rWFSEQQ0m01-10" value="&lt;b&gt;Server&lt;/b&gt;" style="text;html=1;align=center;verticalAlign=middle;resizable=0;points=[];autosize=1;strokeColor=none;fillColor=none;" vertex="1" parent="1">
          <mxGeometry x="745" y="250" width="60" height="30" as="geometry" />
        </mxCell>
        <mxCell id="70DsS0rm1rWFSEQQ0m01-11" value="&lt;b&gt;Client&lt;/b&gt;" style="text;html=1;align=center;verticalAlign=middle;resizable=0;points=[];autosize=1;strokeColor=none;fillColor=none;" vertex="1" parent="1">
          <mxGeometry x="590" y="252.5" width="60" height="30" as="geometry" />
        </mxCell>
        <mxCell id="70DsS0rm1rWFSEQQ0m01-12" value="&lt;b&gt;India&lt;/b&gt;" style="text;html=1;align=center;verticalAlign=middle;resizable=0;points=[];autosize=1;strokeColor=none;fillColor=none;" vertex="1" parent="1">
          <mxGeometry x="200" y="80" width="50" height="30" as="geometry" />
        </mxCell>
        <mxCell id="70DsS0rm1rWFSEQQ0m01-13" value="&lt;b&gt;US&lt;/b&gt;" style="text;html=1;align=center;verticalAlign=middle;resizable=0;points=[];autosize=1;strokeColor=none;fillColor=none;" vertex="1" parent="1">
          <mxGeometry x="665" y="90" width="40" height="30" as="geometry" />
        </mxCell>
        <mxCell id="70DsS0rm1rWFSEQQ0m01-14" value="" style="rounded=0;whiteSpace=wrap;html=1;" vertex="1" parent="1">
          <mxGeometry x="80" y="470" width="300" height="230" as="geometry" />
        </mxCell>
        <mxCell id="70DsS0rm1rWFSEQQ0m01-15" value="" style="ellipse;shape=cloud;whiteSpace=wrap;html=1;" vertex="1" parent="1">
          <mxGeometry x="565" y="475" width="270" height="190" as="geometry" />
        </mxCell>
        <mxCell id="70DsS0rm1rWFSEQQ0m01-19" style="edgeStyle=orthogonalEdgeStyle;rounded=0;orthogonalLoop=1;jettySize=auto;html=1;" edge="1" parent="1" source="70DsS0rm1rWFSEQQ0m01-16" target="70DsS0rm1rWFSEQQ0m01-17">
          <mxGeometry relative="1" as="geometry" />
        </mxCell>
        <mxCell id="70DsS0rm1rWFSEQQ0m01-16" value="" style="image;html=1;image=img/lib/clip_art/computers/Laptop_128x128.png" vertex="1" parent="1">
          <mxGeometry x="105" y="530" width="80" height="80" as="geometry" />
        </mxCell>
        <mxCell id="70DsS0rm1rWFSEQQ0m01-20" style="edgeStyle=orthogonalEdgeStyle;rounded=0;orthogonalLoop=1;jettySize=auto;html=1;" edge="1" parent="1" source="70DsS0rm1rWFSEQQ0m01-17" target="70DsS0rm1rWFSEQQ0m01-15">
          <mxGeometry relative="1" as="geometry" />
        </mxCell>
        <mxCell id="70DsS0rm1rWFSEQQ0m01-17" value="" style="sketch=0;outlineConnect=0;fontColor=#232F3E;gradientColor=none;fillColor=#8C4FFF;strokeColor=none;dashed=0;verticalLabelPosition=bottom;verticalAlign=top;align=center;html=1;fontSize=12;fontStyle=0;aspect=fixed;pointerEvents=1;shape=mxgraph.aws4.vpn_connection;" vertex="1" parent="1">
          <mxGeometry x="290" y="530" width="70" height="78" as="geometry" />
        </mxCell>
        <mxCell id="70DsS0rm1rWFSEQQ0m01-18" value="&lt;b&gt;Cisco VPN&lt;/b&gt;" style="text;html=1;align=center;verticalAlign=middle;resizable=0;points=[];autosize=1;strokeColor=none;fillColor=none;" vertex="1" parent="1">
          <mxGeometry x="290" y="620" width="80" height="30" as="geometry" />
        </mxCell>
        <mxCell id="70DsS0rm1rWFSEQQ0m01-21" value="&lt;b&gt;Internet&lt;/b&gt;" style="text;html=1;align=center;verticalAlign=middle;resizable=0;points=[];autosize=1;strokeColor=none;fillColor=none;" vertex="1" parent="1">
          <mxGeometry x="675" y="555" width="70" height="30" as="geometry" />
        </mxCell>
        <mxCell id="70DsS0rm1rWFSEQQ0m01-26" style="edgeStyle=orthogonalEdgeStyle;rounded=0;orthogonalLoop=1;jettySize=auto;html=1;entryX=0;entryY=0.5;entryDx=0;entryDy=0;" edge="1" parent="1" source="70DsS0rm1rWFSEQQ0m01-22" target="70DsS0rm1rWFSEQQ0m01-23">
          <mxGeometry relative="1" as="geometry" />
        </mxCell>
        <mxCell id="70DsS0rm1rWFSEQQ0m01-22" value="" style="rounded=0;whiteSpace=wrap;html=1;fillColor=#f5f5f5;fontColor=#333333;strokeColor=#666666;" vertex="1" parent="1">
          <mxGeometry x="-20" y="790" width="300" height="230" as="geometry" />
        </mxCell>
        <mxCell id="70DsS0rm1rWFSEQQ0m01-23" value="" style="rounded=0;whiteSpace=wrap;html=1;fillColor=#d5e8d4;strokeColor=#82b366;" vertex="1" parent="1">
          <mxGeometry x="340" y="790" width="300" height="230" as="geometry" />
        </mxCell>
        <mxCell id="70DsS0rm1rWFSEQQ0m01-24" value="" style="ellipse;shape=cloud;whiteSpace=wrap;html=1;" vertex="1" parent="1">
          <mxGeometry x="675" y="800" width="270" height="190" as="geometry" />
        </mxCell>
        <mxCell id="70DsS0rm1rWFSEQQ0m01-25" value="&lt;b&gt;Internet&lt;/b&gt;" style="text;html=1;align=center;verticalAlign=middle;resizable=0;points=[];autosize=1;strokeColor=none;fillColor=none;" vertex="1" parent="1">
          <mxGeometry x="780" y="880" width="70" height="30" as="geometry" />
        </mxCell>
        <mxCell id="70DsS0rm1rWFSEQQ0m01-27" value="" style="image;aspect=fixed;perimeter=ellipsePerimeter;html=1;align=center;shadow=0;dashed=0;spacingTop=3;image=img/lib/active_directory/home.svg;" vertex="1" parent="1">
          <mxGeometry x="-10" y="790" width="50" height="48.5" as="geometry" />
        </mxCell>
        <mxCell id="70DsS0rm1rWFSEQQ0m01-28" value="&lt;b&gt;ISP&lt;/b&gt;" style="text;html=1;align=center;verticalAlign=middle;resizable=0;points=[];autosize=1;strokeColor=none;fillColor=none;" vertex="1" parent="1">
          <mxGeometry x="360" y="790" width="40" height="30" as="geometry" />
        </mxCell>
        <mxCell id="70DsS0rm1rWFSEQQ0m01-29" value="&lt;b&gt;Cache&lt;/b&gt;" style="rounded=0;whiteSpace=wrap;html=1;" vertex="1" parent="1">
          <mxGeometry x="460" y="875" width="120" height="60" as="geometry" />
        </mxCell>
        <mxCell id="70DsS0rm1rWFSEQQ0m01-31" style="edgeStyle=orthogonalEdgeStyle;rounded=0;orthogonalLoop=1;jettySize=auto;html=1;" edge="1" parent="1" source="70DsS0rm1rWFSEQQ0m01-30">
          <mxGeometry relative="1" as="geometry">
            <mxPoint x="330" y="905" as="targetPoint" />
          </mxGeometry>
        </mxCell>
        <mxCell id="70DsS0rm1rWFSEQQ0m01-32" style="edgeStyle=orthogonalEdgeStyle;rounded=0;orthogonalLoop=1;jettySize=auto;html=1;" edge="1" parent="1" source="70DsS0rm1rWFSEQQ0m01-30" target="70DsS0rm1rWFSEQQ0m01-29">
          <mxGeometry relative="1" as="geometry" />
        </mxCell>
        <mxCell id="70DsS0rm1rWFSEQQ0m01-30" value="" style="html=1;verticalLabelPosition=bottom;align=center;labelBackgroundColor=#ffffff;verticalAlign=top;strokeWidth=2;strokeColor=#0080F0;shadow=0;dashed=0;shape=mxgraph.ios7.icons.user;" vertex="1" parent="1">
          <mxGeometry x="115" y="850" width="90" height="110" as="geometry" />
        </mxCell>
        <mxCell id="70DsS0rm1rWFSEQQ0m01-33" style="edgeStyle=orthogonalEdgeStyle;rounded=0;orthogonalLoop=1;jettySize=auto;html=1;entryX=0.16;entryY=0.55;entryDx=0;entryDy=0;entryPerimeter=0;" edge="1" parent="1" source="70DsS0rm1rWFSEQQ0m01-29" target="70DsS0rm1rWFSEQQ0m01-24">
          <mxGeometry relative="1" as="geometry" />
        </mxCell>
        <mxCell id="70DsS0rm1rWFSEQQ0m01-37" style="edgeStyle=orthogonalEdgeStyle;rounded=0;orthogonalLoop=1;jettySize=auto;html=1;entryX=0;entryY=0.5;entryDx=0;entryDy=0;" edge="1" parent="1" source="70DsS0rm1rWFSEQQ0m01-35" target="70DsS0rm1rWFSEQQ0m01-36">
          <mxGeometry relative="1" as="geometry" />
        </mxCell>
        <mxCell id="70DsS0rm1rWFSEQQ0m01-48" style="edgeStyle=orthogonalEdgeStyle;rounded=0;orthogonalLoop=1;jettySize=auto;html=1;entryX=0;entryY=0.5;entryDx=0;entryDy=0;" edge="1" parent="1" source="70DsS0rm1rWFSEQQ0m01-35" target="70DsS0rm1rWFSEQQ0m01-47">
          <mxGeometry relative="1" as="geometry" />
        </mxCell>
        <mxCell id="70DsS0rm1rWFSEQQ0m01-35" value="&lt;b&gt;Frontend&lt;/b&gt;" style="rounded=0;whiteSpace=wrap;html=1;fillColor=#dae8fc;strokeColor=#6c8ebf;" vertex="1" parent="1">
          <mxGeometry x="145" y="1180" width="145" height="90" as="geometry" />
        </mxCell>
        <mxCell id="70DsS0rm1rWFSEQQ0m01-44" style="edgeStyle=orthogonalEdgeStyle;rounded=0;orthogonalLoop=1;jettySize=auto;html=1;" edge="1" parent="1" source="70DsS0rm1rWFSEQQ0m01-36" target="70DsS0rm1rWFSEQQ0m01-43">
          <mxGeometry relative="1" as="geometry" />
        </mxCell>
        <mxCell id="70DsS0rm1rWFSEQQ0m01-36" value="&lt;b&gt;Backend&lt;/b&gt;" style="rounded=0;whiteSpace=wrap;html=1;fillColor=#d5e8d4;strokeColor=#82b366;" vertex="1" parent="1">
          <mxGeometry x="390" y="1070" width="145" height="90" as="geometry" />
        </mxCell>
        <mxCell id="70DsS0rm1rWFSEQQ0m01-39" style="edgeStyle=orthogonalEdgeStyle;rounded=0;orthogonalLoop=1;jettySize=auto;html=1;entryX=0;entryY=0.5;entryDx=0;entryDy=0;" edge="1" parent="1" source="70DsS0rm1rWFSEQQ0m01-38" target="70DsS0rm1rWFSEQQ0m01-35">
          <mxGeometry relative="1" as="geometry" />
        </mxCell>
        <mxCell id="70DsS0rm1rWFSEQQ0m01-38" value="" style="html=1;verticalLabelPosition=bottom;align=center;labelBackgroundColor=#ffffff;verticalAlign=top;strokeWidth=2;strokeColor=#0080F0;shadow=0;dashed=0;shape=mxgraph.ios7.icons.user;" vertex="1" parent="1">
          <mxGeometry x="-60" y="1185" width="80" height="80" as="geometry" />
        </mxCell>
        <mxCell id="70DsS0rm1rWFSEQQ0m01-40" value="" style="endArrow=none;html=1;rounded=0;" edge="1" parent="1">
          <mxGeometry width="50" height="50" relative="1" as="geometry">
            <mxPoint x="70" y="1410" as="sourcePoint" />
            <mxPoint x="70" y="1100" as="targetPoint" />
          </mxGeometry>
        </mxCell>
        <mxCell id="70DsS0rm1rWFSEQQ0m01-41" value="&lt;b&gt;Client&lt;/b&gt;" style="text;html=1;align=center;verticalAlign=middle;resizable=0;points=[];autosize=1;strokeColor=none;fillColor=none;" vertex="1" parent="1">
          <mxGeometry x="-50" y="1120" width="60" height="30" as="geometry" />
        </mxCell>
        <mxCell id="70DsS0rm1rWFSEQQ0m01-42" value="&lt;b&gt;Server&lt;/b&gt;" style="text;html=1;align=center;verticalAlign=middle;resizable=0;points=[];autosize=1;strokeColor=none;fillColor=none;" vertex="1" parent="1">
          <mxGeometry x="150" y="1120" width="60" height="30" as="geometry" />
        </mxCell>
        <mxCell id="70DsS0rm1rWFSEQQ0m01-43" value="" style="shape=cylinder3;whiteSpace=wrap;html=1;boundedLbl=1;backgroundOutline=1;size=15;" vertex="1" parent="1">
          <mxGeometry x="645" y="1185" width="60" height="80" as="geometry" />
        </mxCell>
        <mxCell id="70DsS0rm1rWFSEQQ0m01-45" value="&lt;b&gt;HTTPS&lt;/b&gt;" style="text;html=1;align=center;verticalAlign=middle;resizable=0;points=[];autosize=1;strokeColor=none;fillColor=none;" vertex="1" parent="1">
          <mxGeometry x="187.5" y="1270" width="60" height="30" as="geometry" />
        </mxCell>
        <mxCell id="70DsS0rm1rWFSEQQ0m01-46" value="&lt;b&gt;SSL Termination&lt;/b&gt;" style="text;html=1;align=center;verticalAlign=middle;resizable=0;points=[];autosize=1;strokeColor=none;fillColor=none;" vertex="1" parent="1">
          <mxGeometry x="160" y="1300" width="120" height="30" as="geometry" />
        </mxCell>
        <mxCell id="70DsS0rm1rWFSEQQ0m01-47" value="&lt;b&gt;Backend&lt;/b&gt;" style="rounded=0;whiteSpace=wrap;html=1;fillColor=#d5e8d4;strokeColor=#82b366;" vertex="1" parent="1">
          <mxGeometry x="390" y="1310" width="145" height="90" as="geometry" />
        </mxCell>
      </root>
    </mxGraphModel>
  </diagram>
</mxfile>
